<?xml version="1.0" encoding="utf-8"?>
<!-- Generator: Adobe Illustrator 16.0.0, SVG Export Plug-In . SVG Version: 6.00 Build 0)  -->
<!DOCTYPE svg PUBLIC "-//W3C//DTD SVG 1.1//EN" "http://www.w3.org/Graphics/SVG/1.1/DTD/svg11.dtd">
<svg version="1.1" id="Layer_1" xmlns="http://www.w3.org/2000/svg" xmlns:xlink="http://www.w3.org/1999/xlink" x="0px" y="0px"
	 width="400px" height="400px" viewBox="0 0 400 400" enable-background="new 0 0 400 400" xml:space="preserve">
<path id="circle" d="M397.814,200c0,108.818-88.214,197.025-197.029,197.025C91.972,397.025,3.756,308.818,3.756,200
	S91.972,2.974,200.785,2.974C309.601,2.974,397.814,91.183,397.814,200z"/>
<g id="logo">
	<g>
		<path fill="#FFFFFF" d="M191.595,344.004c0,0-0.028-1.138-0.081-3.272c-0.015-2.131-0.115-5.263-0.085-9.234
			c0.008-3.974-0.019-8.803,0.111-14.326c0.048-2.764,0.099-5.704,0.153-8.804c0.056-3.1,0.203-6.351,0.307-9.747
			c0.116-3.396,0.236-6.933,0.361-10.594c0.132-3.66,0.365-7.436,0.551-11.321c0.398-7.769,0.773-15.966,1.413-24.421
			c0.291-4.231,0.585-8.532,0.884-12.887c0.149-2.177,0.299-4.367,0.45-6.568c0.19-2.197,0.38-4.406,0.572-6.624
			c0.77-8.869,1.551-17.879,2.333-26.889c0.938-8.995,1.875-17.99,2.798-26.845c0.235-2.213,0.47-4.418,0.702-6.611
			c0.268-2.19,0.534-4.369,0.798-6.535c0.529-4.333,1.052-8.612,1.565-12.821c0.967-8.424,2.164-16.543,3.231-24.249
			c0.553-3.851,1.028-7.603,1.602-11.221c0.567-3.619,1.116-7.115,1.644-10.471c0.539-3.355,1.003-6.576,1.54-9.63
			c0.531-3.054,1.035-5.952,1.509-8.674c0.913-5.449,1.854-10.185,2.593-14.089c0.714-3.906,1.427-6.961,1.846-9.05
			c0.439-2.087,0.674-3.201,0.674-3.201l0.01-0.043c0.045-0.215,0.257-0.354,0.472-0.308c0.2,0.042,0.334,0.228,0.315,0.427
			c0,0-6.67,72.04-13.339,144.08c-7.067,72.003-14.133,144.005-14.133,144.005c-0.022,0.219-0.217,0.379-0.436,0.357
			c-0.203-0.02-0.355-0.188-0.359-0.387L191.595,344.004z"/>
		<path fill="#FFFFFF" d="M73.544,237.188c0,0,1.152-0.235,3.311-0.677c2.163-0.402,5.328-1.073,9.366-1.777
			c4.037-0.725,8.935-1.646,14.562-2.555c2.812-0.475,5.803-0.979,8.958-1.512c3.152-0.537,6.476-1.011,9.936-1.567
			c3.46-0.549,7.064-1.121,10.794-1.713c3.729-0.589,7.591-1.115,11.554-1.715c7.928-1.18,16.271-2.505,24.909-3.701
			c4.31-0.647,8.692-1.306,13.127-1.973c2.212-0.351,4.438-0.704,6.674-1.06c2.238-0.33,4.487-0.662,6.745-0.994
			c9.018-1.371,18.146-2.891,27.167-4.647c9.041-1.621,18.01-3.492,26.467-5.923c4.205-1.256,8.316-2.554,12.096-4.106
			c3.768-1.548,7.218-3.409,9.681-5.531c1.203-1.066,2.157-2.16,2.782-3.288c0.629-1.129,1.032-2.297,1.222-3.677
			c0.172-1.351,0.107-2.063-0.318-3.23c-0.456-1.113-1.239-2.352-2.312-3.527c-2.119-2.389-5.037-4.476-7.967-6.376
			c-2.957-1.899-6.045-3.557-9.093-5.032c-3.043-1.494-6.072-2.754-8.957-3.985c-2.889-1.224-5.676-2.312-8.316-3.295
			c-5.293-1.929-9.959-3.58-13.837-4.843c-3.883-1.238-6.935-2.285-9.035-2.915c-2.102-0.631-3.222-0.968-3.222-0.968l-0.045-0.014
			c-0.211-0.063-0.331-0.286-0.268-0.497c0.059-0.194,0.251-0.311,0.445-0.279c0,0,4.626,0.749,12.61,2.55
			c3.991,0.905,8.822,2.081,14.308,3.643c5.48,1.57,11.63,3.508,18.147,6.16c3.255,1.33,6.599,2.853,9.931,4.695
			c3.316,1.854,6.667,4.013,9.586,6.908c1.455,1.442,2.759,3.123,3.714,5.05c0.462,0.973,0.812,2.007,1.035,3.088
			c0.087,0.56,0.177,1.131,0.183,1.638l0.02,0.393l-0.007,0.436c-0.009,0.271-0.007,0.543-0.027,0.815
			c-0.135,2.175-0.683,4.377-1.71,6.369c-1.006,2.005-2.455,3.766-4.083,5.312c-3.313,3.056-7.312,5.279-11.446,7.148
			c-4.15,1.868-8.494,3.371-12.912,4.714c-8.85,2.653-18.006,4.663-27.195,6.42c-9.199,1.712-18.445,3.122-27.556,4.408
			c-9.114,1.27-18.098,2.396-26.8,3.405c-17.404,2.023-33.675,3.632-47.626,4.943c-13.952,1.312-25.585,2.31-33.73,3.005
			c-8.145,0.682-12.799,1.07-12.799,1.07c-0.219,0.019-0.412-0.145-0.431-0.364c-0.017-0.203,0.122-0.384,0.317-0.424
			L73.544,237.188z"/>
	</g>
</g>
</svg>
